<svg width="200" height="75" viewBox="0 0 200 75" fill="none" xmlns="http://www.w3.org/2000/svg">
    <rect width="2" height="45" rx="1" transform="matrix(-1 0 0 1 70 14)" fill="black"/>
    <path d="M32.072 21.932C31.016 21.524 30.248 21.296 29.768 21.248C29.288 21.2 28.7 21.164 28.004 21.14C27.332 21.092 26.528 21.068 25.592 21.068C24.68 21.068 23.588 21.128 22.316 21.248V42.74L26.276 42.848C28.748 42.752 30.572 42.44 31.748 41.912C34.94 40.448 36.548 37.136 36.572 31.976C36.572 29.96 36.344 28.232 35.888 26.792C35.432 25.352 34.94 24.284 34.412 23.588C33.908 22.892 33.128 22.34 32.072 21.932ZM19.832 19.988L26.816 19.808C28.952 19.808 30.824 19.988 32.432 20.348C34.04 20.708 35.516 21.32 36.86 22.184C39.596 23.936 40.964 27.188 40.964 31.94C40.964 39.98 36.068 44 26.276 44H15.404V43.064L18.536 42.776V21.212L15.404 20.816V19.88C16.868 19.952 18.344 19.988 19.832 19.988Z" fill="black"/>
    <path d="M44.072 30.932C43.016 30.524 42.248 30.296 41.768 30.248C41.288 30.2 40.7 30.164 40.004 30.14C39.332 30.092 38.528 30.068 37.592 30.068C36.68 30.068 35.588 30.128 34.316 30.248V51.74L38.276 51.848C40.748 51.752 42.572 51.44 43.748 50.912C46.94 49.448 48.548 46.136 48.572 40.976C48.572 38.96 48.344 37.232 47.888 35.792C47.432 34.352 46.94 33.284 46.412 32.588C45.908 31.892 45.128 31.34 44.072 30.932ZM31.832 28.988L38.816 28.808C40.952 28.808 42.824 28.988 44.432 29.348C46.04 29.708 47.516 30.32 48.86 31.184C51.596 32.936 52.964 36.188 52.964 40.94C52.964 48.98 48.068 53 38.276 53H27.404V52.064L30.536 51.776V30.212L27.404 29.816V28.88C28.868 28.952 30.344 28.988 31.832 28.988Z" fill="black"/>
    <path d="M96.8516 50.4746C95.2695 50.4746 93.7871 50.2168 92.4043 49.7012C91.0332 49.1738 89.8613 48.4473 88.8887 47.5215C87.9395 46.6191 87.125 45.5762 86.4453 44.3926C85.7656 43.1973 85.2676 41.9434 84.9512 40.6309C84.6348 39.3301 84.4766 38 84.4766 36.6406C84.4766 34.8711 84.7871 33.1719 85.4082 31.543C86.041 29.9023 86.9258 28.4434 88.0625 27.166C89.2109 25.877 90.6523 24.8633 92.3867 24.125C94.1211 23.375 96.002 23 98.0293 23C99.9512 23 101.697 23.3574 103.268 24.0723C104.838 24.7871 106.057 25.748 106.924 26.9551C107.779 28.1621 108.207 29.4863 108.207 30.9277C108.207 31.4199 108.078 31.8887 107.82 32.334C107.574 32.7793 107.217 33.1426 106.748 33.4238C106.291 33.6934 105.77 33.8281 105.184 33.8281C104.633 33.8281 104.129 33.6992 103.672 33.4414C103.227 33.1719 102.875 32.8262 102.617 32.4043C102.359 31.9824 102.23 31.5371 102.23 31.0684C102.23 30.5527 102.348 30.084 102.582 29.6621C102.816 29.2285 103.109 28.8887 103.461 28.6426C103.812 28.3848 104.146 28.2559 104.463 28.2559H104.533C104.064 27.5996 103.438 27.043 102.652 26.5859C101.879 26.1289 101.129 25.8242 100.402 25.6719C99.7227 25.5312 99.043 25.4609 98.3633 25.4609C96.5 25.4609 94.8535 25.9531 93.4238 26.9375C91.9941 27.9219 90.9102 29.2637 90.1719 30.9629C89.4453 32.6504 89.082 34.5312 89.082 36.6055C89.082 37.9883 89.2988 39.3301 89.7324 40.6309C90.1777 41.9316 90.793 43.0801 91.5781 44.0762C92.3633 45.084 93.3125 45.8809 94.4258 46.4668C95.5508 47.041 96.7344 47.3281 97.9766 47.3281C98.8555 47.3281 99.7168 47.1641 100.561 46.8359C101.404 46.4961 102.119 46.0566 102.705 45.5176C103.279 44.9902 103.73 44.4277 104.059 43.8301C104.398 43.2324 104.568 42.6758 104.568 42.1602V39.6992H99.5938V37.0449H111.037V39.6992H108.172V50H106.045L105.184 46.291C104.797 47.0527 104.275 47.7207 103.619 48.2949C102.975 48.8691 102.26 49.3086 101.475 49.6133C99.9863 50.1875 98.4453 50.4746 96.8516 50.4746ZM111.986 48.0312H115.414V33.1074H111.986V31.1387L118.648 30.8398L119.123 34.9531C119.416 33.957 119.949 33.0195 120.723 32.1406C121.133 31.6719 121.637 31.3027 122.234 31.0332C122.844 30.7637 123.494 30.6289 124.186 30.6289C124.83 30.6289 125.416 30.752 125.943 30.998C126.471 31.2324 126.887 31.5781 127.191 32.0352C127.508 32.4922 127.666 33.0312 127.666 33.6523C127.666 34.2383 127.543 34.7539 127.297 35.1992C127.062 35.6328 126.74 35.9668 126.33 36.2012C125.92 36.4238 125.469 36.5352 124.977 36.5352C124.285 36.5352 123.693 36.3184 123.201 35.8848C122.721 35.4512 122.48 34.8887 122.48 34.1973C122.48 33.9746 122.533 33.7344 122.639 33.4766C122.756 33.2188 122.879 33.0078 123.008 32.8438L123.201 32.6504C122.51 32.6504 121.895 32.8672 121.355 33.3008C120.816 33.7227 120.395 34.3086 120.09 35.0586C119.492 36.5117 119.193 38.123 119.193 39.8926V48.0312H123.148V50H111.986V48.0312ZM138.195 50.4746C136.355 50.4746 134.738 50.0527 133.344 49.209C131.949 48.3535 130.871 47.1758 130.109 45.6758C129.359 44.1758 128.984 42.4707 128.984 40.5605C128.984 38.6621 129.342 36.9688 130.057 35.4805C130.783 33.9922 131.844 32.8145 133.238 31.9473C134.645 31.0684 136.285 30.6289 138.16 30.6289C139.543 30.6289 140.814 30.8809 141.975 31.3848C143.146 31.8887 144.125 32.5918 144.91 33.4941C145.684 34.3848 146.275 35.4395 146.686 36.6582C147.096 37.8652 147.301 39.166 147.301 40.5605C147.301 42.4473 146.943 44.1348 146.229 45.623C145.514 47.0996 144.465 48.2715 143.082 49.1387C141.699 50.0293 140.07 50.4746 138.195 50.4746ZM138.195 48.2422C139.227 48.2422 140.123 47.9375 140.885 47.3281C141.658 46.707 142.25 45.834 142.66 44.709C143.07 43.584 143.275 42.2773 143.275 40.7891C143.275 39.1602 143.1 37.7656 142.748 36.6055C142.396 35.4336 141.84 34.4961 141.078 33.793C140.293 33.0781 139.32 32.7207 138.16 32.7207C137.023 32.7207 136.057 33.0723 135.26 33.7754C134.463 34.4785 133.889 35.4395 133.537 36.6582C133.186 37.8301 133.01 39.207 133.01 40.7891C133.01 42.2773 133.215 43.584 133.625 44.709C134.047 45.834 134.65 46.707 135.436 47.3281C136.221 47.9375 137.141 48.2422 138.195 48.2422ZM163.736 46.5371C162.26 49.1621 160.145 50.4746 157.391 50.4746C156.969 50.4746 156.57 50.4453 156.195 50.3867C155.82 50.3281 155.398 50.2227 154.93 50.0703C154.062 49.8008 153.271 49.1562 152.557 48.1367C152.217 47.6562 151.953 47.0352 151.766 46.2734C151.578 45.5 151.484 44.6328 151.484 43.6719V33.1074H148.18V31.1387H155.264V43.6367C155.264 45.1836 155.51 46.3027 156.002 46.9941C156.494 47.6855 157.268 48.0312 158.322 48.0312C159.072 48.0312 159.857 47.8086 160.678 47.3633C161.51 46.918 162.207 46.332 162.77 45.6055C163.332 44.8789 163.613 44.1465 163.613 43.4082V33.1074H160.414V31.1387H167.41V48.0137L170.82 48.3828V50L163.736 50.5098V46.5371ZM169.924 54.9395H174.055V33.1074H170.645V31.1387L177.729 30.6289V34.1621C178.361 33.0137 179.164 32.1406 180.137 31.543C181.121 30.9336 182.229 30.6289 183.459 30.6289C184.912 30.6289 186.219 31.0684 187.379 31.9473C188.539 32.8145 189.441 34.0098 190.086 35.5332C190.707 37.0449 191.018 38.709 191.018 40.5254C191.018 42.4707 190.689 44.1992 190.033 45.7109C189.377 47.2109 188.445 48.3828 187.238 49.2266C186.031 50.0586 184.625 50.4746 183.02 50.4746C181.977 50.4746 180.998 50.2285 180.084 49.7363C179.182 49.2324 178.432 48.541 177.834 47.6621V54.9043H181.719V57.0488H169.924V54.9395ZM182.334 48.4883C183.131 48.4883 183.84 48.2539 184.461 47.7852C185.082 47.3047 185.574 46.6543 185.938 45.834C186.641 44.2168 186.992 42.377 186.992 40.3145C186.992 38.9785 186.816 37.7656 186.465 36.6758C186.113 35.5742 185.58 34.666 184.865 33.9512C184.139 33.2246 183.295 32.8613 182.334 32.8613C181.408 32.8613 180.582 33.1953 179.855 33.8633C179.141 34.5195 178.584 35.4395 178.186 36.623C177.787 37.8066 177.588 39.1484 177.588 40.6484C177.588 42.5938 177.951 44.3457 178.678 45.9043C179.041 46.7012 179.539 47.334 180.172 47.8027C180.816 48.2598 181.537 48.4883 182.334 48.4883Z" fill="black"/>
</svg>
